#!OML:ASF H:\Terrain\Patient Classification 1\Terrain2\Thursday\justin.ASF
:FULLY-SPECIFIED
:DEGREES
1589
root -12.3885 17.1584 -2.38709 178.932 4.68682 -170.068
lowerback 5.09399 1.43163 8.1483
upperback 1.80469 2.73387 3.89944
thorax -0.819924 1.53328 -0.683047
lowerneck -13.5816 -0.118874 -10.2904
upperneck 38.6858 -4.81355 6.79907
head 16.5726 -4.21852 3.54385
rclavicle -1.81639e-014 3.4191e-014
rhumerus -28.1738 -8.81887 -78.972
rradius 34.6356
rwrist -14.8632
rhand -21.1022 13.1749
rfingers 7.12502
rthumb 5.27565 -16.7395
lclavicle -1.81639e-014 3.4191e-014
lhumerus -36.9071 7.01671 85.7923
lradius 29.5439
lwrist -0.601343
lhand -11.2449 25.8816
lfingers 7.12502
lthumb 14.7846 55.3343
rfemur 10.9508 1.70377 33.6011
rtibia 22.8383
rfoot -18.1664 1.35927
rtoes 17.0311
lfemur -25.6172 -0.677179 -7.05254
ltibia 23.4343
lfoot -10.2523 -6.64344
ltoes -14.9495
1590
root -12.411 17.1381 -2.51476 178.994 4.92961 -170.176
lowerback 5.01429 1.53357 8.17627
upperback 1.76328 2.85051 3.80848
thorax -0.803295 1.58576 -0.795543
lowerneck -13.7404 -0.141225 -10.2062
upperneck 38.7557 -4.90132 6.88666
head 16.6623 -4.23142 3.55317
rclavicle -8.89561e-015 -2.80286e-014
rhumerus -28.3911 -8.98069 -78.9666
rradius 34.8453
rwrist -14.915
rhand -21.1555 13.4071
rfingers 7.12502
rthumb 5.22423 -16.5085
lclavicle -8.89561e-015 -2.80286e-014
lhumerus -36.957 6.7674 85.8347
lradius 29.4318
lwrist -0.517024
lhand -11.214 25.9194
lfingers 7.12502
lthumb 14.8144 55.3699
rfemur 10.8473 1.29861 33.2207
rtibia 23.7536
rfoot -18.0661 1.24957
rtoes 13.228
lfemur -25.2858 -0.66954 -7.25946
ltibia 23.5892
lfoot -9.78876 -7.40804
ltoes -15.3136
1591
root -12.4294 17.1254 -2.64269 178.82 5.13157 -170.408
lowerback 4.95559 1.58383 7.92094
upperback 1.91613 2.8886 3.81968
thorax -0.622158 1.61375 -0.638993
lowerneck -13.7493 -0.203044 -10.1799
upperneck 38.556 -4.86846 6.77338
head 16.5502 -4.20036 3.503
rclavicle 2.04748e-014 1.61016e-014
rhumerus -28.4583 -9.17317 -78.8053
rradius 35.1243
rwrist -14.7399
rhand -20.972 13.6408
rfingers 7.12502
rthumb 5.40136 -16.2703
lclavicle 2.04748e-014 1.61016e-014
lhumerus -36.6949 6.75452 85.9933
lradius 29.1511
lwrist -0.396651
lhand -12.4345 24.6353
lfingers 7.12502
lthumb 13.6383 54.1685
rfemur 10.878 0.784172 32.7828
rtibia 24.5849
rfoot -17.6839 0.652124
rtoes 6.39737
lfemur -24.8496 -0.756546 -7.58325
ltibia 23.8406
lfoot -8.54163 -8.42108
ltoes -11.4486
1592
root -12.4497 17.1227 -2.77084 178.723 5.36356 -170.396
lowerback 4.82696 1.58138 7.9153
upperback 1.98797 2.87403 3.88841
thorax -0.480893 1.61556 -0.557057
lowerneck -13.2778 -0.204911 -10.1818
upperneck 38.2315 -4.8401 6.67735
head 16.2539 -4.19506 3.4612
rclavicle 3.46134e-014 3.45885e-014
rhumerus -28.6042 -9.08772 -78.7603
rradius 35.3659
rwrist -14.5547
rhand -20.9155 13.4241
rfingers 7.12502
rthumb 5.45589 -16.4856
lclavicle 3.46134e-014 3.45885e-014
lhumerus -36.6696 7.10208 85.9268
lradius 28.9072
lwrist -0.650744
lhand -11.1018 26.5715
lfingers 7.12502
lthumb 14.9224 56.014
rfemur 10.8991 0.614982 32.605
rtibia 25.4449
rfoot -17.3553 0.581499
rtoes 0.927585
lfemur -24.5389 -0.647648 -7.66332
ltibia 24.0392
lfoot -6.95447 -9.12258
ltoes -9.16704
1593
root -12.4737 17.1245 -2.90155 178.771 5.6143 -170.279
lowerback 4.74932 1.56983 8.10066
upperback 1.96085 2.86546 3.92878
thorax -0.459398 1.61409 -0.614298
lowerneck -13.2074 -0.168587 -10.1658
upperneck 38.2601 -4.81691 6.63553
head 16.2459 -4.20186 3.44183
rclavicle 5.98839e-015 2.94201e-014
rhumerus -28.7136 -8.76584 -78.8398
rradius 35.3669
rwrist -14.8357
rhand -21.1107 13.6023
rfingers 7.12502
rthumb 5.26742 -16.3122
lclavicle 5.98839e-015 2.94201e-014
lhumerus -36.7359 7.37419 85.8627
lradius 28.5275
lwrist -0.399212
lhand -11.7757 25.6781
lfingers 7.12502
lthumb 14.2731 55.1675
rfemur 10.7925 0.593869 32.4924
rtibia 26.4437
rfoot -17.0424 0.80591
rtoes -3.63596
lfemur -24.3199 -0.505552 -7.64575
ltibia 24.1243
lfoot -5.90228 -9.3271
ltoes -10.554
1594
root -12.495 17.129 -3.03361 178.656 5.86981 -170.558
lowerback 4.83128 1.503 7.74168
upperback 1.94457 2.76841 3.98506
thorax -0.548715 1.5597 -0.359017
lowerneck -13.4263 0.0179435 -10.3559
upperneck 38.5569 -4.54527 6.67125
head 16.4258 -4.14212 3.54014
rclavicle 3.28989e-014 1.23246e-014
rhumerus -28.7281 -8.17836 -78.8177
rradius 35.1348
rwrist -15.1339
rhand -21.284 14.0356
rfingers 7.12502
rthumb 5.10015 -15.883
lclavicle 3.28989e-014 1.23246e-014
lhumerus -36.8792 7.84756 85.8859
lradius 28.2068
lwrist 0.134712
lhand -12.9629 24.0493
lfingers 7.12502
lthumb 13.1289 53.616
rfemur 10.7486 0.544579 31.9427
rtibia 27.6151
rfoot -16.5622 1.03914
rtoes -8.38937
lfemur -23.8687 -0.379041 -8.06869
ltibia 24.1712
lfoot -5.17788 -9.55845
ltoes -11.3523
1595
root -12.5118 17.1327 -3.16329 178.308 6.01435 -171.182
lowerback 4.94163 1.46706 7.054
upperback 2.03729 2.67281 3.88114
thorax -0.545801 1.50304 -0.085503
lowerneck -13.4385 -5.20248 -9.15113
upperneck 39.31 -2.03901 4.24904
head 16.6962 -0.099018 3.62768
rclavicle -1.0635e-014 -5.88403e-014
rhumerus -28.7685 -7.98158 -78.8392
rradius 34.9771
rwrist -15.2016
rhand -21.5393 13.8148
rfingers 7.12502
rthumb 4.85358 -16.1097
lclavicle -1.0635e-014 -5.88403e-014
lhumerus -36.858 8.24522 85.7056
lradius 28.0338
lwrist -0.301314
lhand -12.8892 24.362
lfingers 7.12502
lthumb 13.2 53.9241
rfemur 10.7567 0.507237 31.0699
rtibia 29.0361
rfoot -15.9834 1.35576
rtoes -11.5642
lfemur -23.1254 -0.13966 -8.8902
ltibia 24.103
lfoot -4.17705 -9.98817
ltoes -11.1832
